<svg xmlns="http://www.w3.org/2000/svg" xmlns:xlink="http://www.w3.org/1999/xlink" width="50" zoomAndPan="magnify" viewBox="0 0 37.5 37.499999" height="50" preserveAspectRatio="xMidYMid meet" version="1.0"><defs><clipPath id="82a120416b"><path d="M 12 7.417969 L 26 7.417969 L 26 28 L 12 28 Z M 12 7.417969 " clip-rule="nonzero"/></clipPath><clipPath id="a859222f19"><path d="M 0 26 L 37.007812 26 L 37.007812 36.285156 L 0 36.285156 Z M 0 26 " clip-rule="nonzero"/></clipPath></defs><g clip-path="url(#82a120416b)"><path fill="#3b2c12" d="M 18.15625 7.445312 C 16.449219 7.582031 14.910156 8.242188 13.785156 9.324219 C 12.316406 10.742188 12.011719 12.257812 12.449219 15.898438 C 12.503906 16.316406 12.605469 17.308594 12.683594 18.09375 C 12.882812 20.167969 13.054688 21.648438 13.164062 22.203125 C 13.492188 23.925781 14.242188 25.371094 15.4375 26.617188 C 16.402344 27.609375 17.136719 27.929688 18.601562 27.972656 C 19.949219 28.015625 20.65625 27.84375 21.511719 27.265625 C 22.558594 26.550781 23.703125 24.929688 24.191406 23.472656 C 24.566406 22.328125 24.605469 22.074219 24.839844 18.859375 C 24.949219 17.367188 25.015625 16.683594 25.078125 16.449219 C 25.171875 16.101562 25.277344 14.8125 25.300781 13.78125 C 25.324219 12.84375 25.316406 12.636719 25.222656 12.128906 C 24.929688 10.378906 23.953125 9.113281 22.226562 8.238281 C 20.945312 7.585938 19.648438 7.332031 18.15625 7.445312 Z M 23.617188 11.199219 C 23.660156 11.316406 23.695312 11.472656 23.695312 11.550781 C 23.695312 11.722656 23.574219 12.007812 23.449219 12.140625 C 23.359375 12.242188 23.359375 12.242188 23.535156 12.355469 C 23.855469 12.554688 23.886719 12.679688 23.886719 13.734375 C 23.886719 14.757812 23.886719 14.738281 24.238281 15.296875 C 24.90625 16.339844 24.8125 19.578125 24.082031 21.152344 C 23.832031 21.679688 23.605469 22 22.992188 22.679688 C 22.644531 23.070312 22.402344 23.394531 22.265625 23.65625 L 22.050781 24.054688 L 22.027344 23.292969 C 21.988281 22.253906 21.992188 22.261719 21.046875 21.71875 C 20.785156 21.570312 20.5 21.390625 20.410156 21.324219 C 20.078125 21.054688 19.960938 20.988281 19.800781 20.957031 C 19.65625 20.929688 19.585938 20.949219 19.347656 21.101562 C 18.980469 21.328125 18.789062 21.332031 18.433594 21.128906 C 18.125 20.957031 17.832031 20.929688 17.636719 21.066406 C 17.117188 21.417969 16.582031 21.75 16.253906 21.929688 C 15.710938 22.226562 15.6875 22.285156 15.6875 23.242188 C 15.6875 23.648438 15.667969 23.980469 15.648438 23.980469 C 15.625 23.980469 15.582031 23.925781 15.546875 23.855469 C 15.425781 23.585938 15.144531 23.210938 14.679688 22.714844 C 13.878906 21.847656 13.558594 21.269531 13.304688 20.234375 C 13.074219 19.304688 12.996094 18.667969 12.992188 17.617188 C 12.992188 16.304688 13.097656 15.808594 13.53125 15.121094 L 13.753906 14.757812 L 13.78125 13.710938 C 13.808594 12.480469 13.8125 12.464844 14.238281 12.304688 C 14.992188 12.027344 16.511719 11.925781 20.214844 11.921875 C 21.628906 11.921875 22.011719 11.910156 22.242188 11.847656 C 22.851562 11.6875 23.167969 11.375 23.207031 10.882812 L 23.230469 10.617188 L 23.390625 10.796875 C 23.476562 10.898438 23.578125 11.078125 23.617188 11.199219 Z M 18.523438 22.222656 L 18.839844 22.324219 L 19.128906 22.214844 C 19.472656 22.085938 19.484375 22.089844 20.496094 22.550781 C 21.363281 22.949219 21.453125 23 21.453125 23.128906 C 21.453125 23.363281 21.105469 23.753906 20.578125 24.121094 C 20.144531 24.421875 19.953125 24.460938 18.925781 24.460938 C 17.625 24.460938 17.402344 24.402344 16.796875 23.886719 C 16.296875 23.46875 16.140625 23.152344 16.34375 22.96875 C 16.421875 22.894531 17.832031 22.242188 18.070312 22.171875 C 18.136719 22.148438 18.195312 22.128906 18.195312 22.128906 C 18.199219 22.125 18.347656 22.167969 18.523438 22.222656 Z M 18.523438 22.222656 " fill-opacity="1" fill-rule="nonzero"/></g><g clip-path="url(#a859222f19)"><path fill="#3b2c12" d="M 24.125 26.140625 C 24.125 26.152344 24.167969 26.347656 24.21875 26.585938 C 24.332031 27.09375 24.335938 27.472656 24.242188 27.84375 C 23.832031 29.433594 22.257812 30.753906 20.238281 31.203125 C 19.777344 31.308594 18.476562 31.351562 17.96875 31.28125 C 15.875 30.984375 14.140625 29.726562 13.585938 28.109375 C 13.394531 27.558594 13.371094 27.253906 13.484375 26.675781 C 13.535156 26.414062 13.570312 26.1875 13.558594 26.175781 C 13.523438 26.136719 12.445312 26.511719 11.707031 26.820312 C 9.953125 27.546875 8.414062 28.394531 6.757812 29.53125 C 5.980469 30.066406 5.839844 30.140625 5.128906 30.394531 C 3.8125 30.867188 2.855469 31.4375 2.039062 32.253906 C 1.078125 33.210938 0.371094 34.519531 0.0976562 35.851562 C 0.046875 36.109375 0.00390625 36.332031 0.00390625 36.347656 C 0.00390625 36.363281 8.328125 36.375 18.503906 36.375 L 37.003906 36.375 L 36.96875 36.125 C 36.855469 35.238281 36.632812 34.460938 36.277344 33.730469 C 35.445312 32.015625 34.113281 30.875 32.160156 30.199219 C 31.9375 30.121094 31.558594 29.902344 31.015625 29.539062 C 28.769531 28.046875 26.710938 26.996094 24.695312 26.3125 C 24.132812 26.121094 24.125 26.117188 24.125 26.140625 Z M 24.125 26.140625 " fill-opacity="1" fill-rule="nonzero"/></g></svg>