<svg xmlns="http://www.w3.org/2000/svg" xmlns:xlink="http://www.w3.org/1999/xlink" width="50" zoomAndPan="magnify" viewBox="0 0 37.5 37.499999" height="50" preserveAspectRatio="xMidYMid meet" version="1.0"><defs><clipPath id="fb07f1afa5"><path d="M 10 2.707031 L 27 2.707031 L 27 20 L 10 20 Z M 10 2.707031 " clip-rule="nonzero"/></clipPath><clipPath id="7b773aed96"><path d="M 4.003906 21 L 32.867188 21 L 32.867188 36.753906 L 4.003906 36.753906 Z M 4.003906 21 " clip-rule="nonzero"/></clipPath></defs><g clip-path="url(#fb07f1afa5)"><path fill="#3b2c12" d="M 26.980469 11.050781 C 26.980469 11.597656 26.925781 12.140625 26.816406 12.679688 C 26.707031 13.214844 26.546875 13.738281 26.335938 14.242188 C 26.121094 14.75 25.859375 15.230469 25.550781 15.6875 C 25.242188 16.140625 24.890625 16.5625 24.496094 16.949219 C 24.101562 17.335938 23.671875 17.683594 23.210938 17.988281 C 22.746094 18.292969 22.257812 18.550781 21.746094 18.757812 C 21.230469 18.96875 20.699219 19.125 20.152344 19.234375 C 19.605469 19.339844 19.054688 19.394531 18.5 19.394531 C 17.941406 19.394531 17.390625 19.339844 16.84375 19.234375 C 16.296875 19.125 15.765625 18.96875 15.253906 18.757812 C 14.738281 18.550781 14.25 18.292969 13.785156 17.988281 C 13.324219 17.683594 12.894531 17.335938 12.5 16.949219 C 12.105469 16.5625 11.753906 16.140625 11.445312 15.6875 C 11.136719 15.230469 10.875 14.75 10.660156 14.242188 C 10.449219 13.738281 10.289062 13.214844 10.179688 12.679688 C 10.070312 12.140625 10.015625 11.597656 10.015625 11.050781 C 10.015625 10.503906 10.070312 9.960938 10.179688 9.421875 C 10.289062 8.886719 10.449219 8.363281 10.660156 7.859375 C 10.875 7.351562 11.136719 6.871094 11.445312 6.414062 C 11.753906 5.960938 12.105469 5.539062 12.5 5.152344 C 12.894531 4.765625 13.324219 4.417969 13.785156 4.113281 C 14.25 3.808594 14.738281 3.550781 15.253906 3.34375 C 15.765625 3.132812 16.296875 2.976562 16.84375 2.867188 C 17.390625 2.761719 17.941406 2.707031 18.5 2.707031 C 19.054688 2.707031 19.605469 2.761719 20.152344 2.867188 C 20.699219 2.976562 21.230469 3.132812 21.746094 3.34375 C 22.257812 3.550781 22.746094 3.808594 23.210938 4.113281 C 23.671875 4.417969 24.101562 4.765625 24.496094 5.152344 C 24.890625 5.539062 25.242188 5.960938 25.550781 6.414062 C 25.859375 6.871094 26.121094 7.351562 26.335938 7.859375 C 26.546875 8.363281 26.707031 8.886719 26.816406 9.421875 C 26.925781 9.960938 26.980469 10.503906 26.980469 11.050781 Z M 26.980469 11.050781 " fill-opacity="1" fill-rule="nonzero"/></g><g clip-path="url(#7b773aed96)"><path fill="#3b2c12" d="M 22.589844 21.335938 L 14.40625 21.335938 C 8.664062 21.335938 4.007812 27.746094 4.007812 33.488281 C 4.007812 35.425781 5.578125 36.996094 7.515625 36.996094 L 29.480469 36.996094 C 31.417969 36.996094 32.988281 35.425781 32.988281 33.488281 C 32.988281 27.746094 28.335938 21.335938 22.589844 21.335938 Z M 22.589844 21.335938 " fill-opacity="1" fill-rule="nonzero"/></g></svg>